<svg width="60" height="58" viewBox="0 0 60 58" fill="none" xmlns="http://www.w3.org/2000/svg">
<path d="M51.6014 18.6323L37.2956 50.5188L23.5082 50.5918L20.3327 57.4948C20.2355 57.7138 19.7981 58.0301 19.6118 57.9977C19.4254 57.9652 19.0123 57.6651 18.9151 57.4542L0 15.2011L6.43194 1.99545C6.54535 1.76833 7.0314 1.45198 7.25821 1.43575C7.48503 1.41953 7.80906 1.68721 8.04398 2.21446L25.8331 42.0017C26.068 42.5289 26.4892 42.6263 26.6108 42.5857C26.7728 42.5371 27.1778 42.2613 27.3155 41.953L38.1623 17.6913L50.9533 17.6021C51.3016 17.6021 51.6338 18.1212 51.6176 18.6242L51.6014 18.6323Z" fill="url(#paint0_linear_163_26)"/>
<path d="M33.5125 10.7559L27.4694 24.067C27.1697 24.7241 25.8493 24.578 25.5658 23.9535L15.4966 1.53309C15.1888 0.843603 15.8206 0 16.574 0H57.8713C58.2358 0 58.7705 0.194678 58.9325 0.381244C59.1269 0.608367 59.216 1.33841 59.0621 1.68721L55.1333 10.7235L33.5044 10.7559H33.5125Z" fill="url(#paint1_linear_163_26)"/>
<defs>
<linearGradient id="paint0_linear_163_26" x1="25.9375" y1="1.43506" x2="20.7004" y2="57.5351" gradientUnits="userSpaceOnUse">
<stop stop-color="white"/>
<stop offset="0.565799" stop-color="#E6E6E6"/>
<stop offset="1" stop-color="#CECECE"/>
</linearGradient>
<linearGradient id="paint1_linear_163_26" x1="37.3874" y1="-8.55526e-08" x2="36.2205" y2="24.4504" gradientUnits="userSpaceOnUse">
<stop stop-color="white"/>
<stop offset="0.565799" stop-color="#E6E6E6"/>
<stop offset="1" stop-color="#CECECE"/>
</linearGradient>
</defs>
</svg>
